HIERARCHY
ROOT Hips
{
	OFFSET 0.000000 35.082581 0.000000
	CHANNELS 6 Xposition Yposition Zposition Xrotation Yrotation Zrotation 
	JOINT Spine
	{
		OFFSET 0.000000 6.876099 0.125700
		CHANNELS 3 Xrotation Yrotation Zrotation
		JOINT Spine1
		{
			OFFSET 0.000000 5.730043 0.104720
			CHANNELS 3 Xrotation Yrotation Zrotation
			JOINT Spine1_split
			{
				OFFSET 0.000000 5.730043 0.104720
				CHANNELS 3 Xrotation Yrotation Zrotation
				JOINT Spine2
				{
					OFFSET 0.000000 5.730043 0.104720
					CHANNELS 3 Xrotation Yrotation Zrotation
					JOINT Neck
					{
						OFFSET 0.000000 10.314075 0.188496
						CHANNELS 3 Xrotation Yrotation Zrotation
						JOINT Head
						{
							OFFSET 0.000000 7.643700 -2.377400
							CHANNELS 3 Xrotation Yrotation Zrotation
							JOINT HeadTop_End
							{
								OFFSET 0.000000 43.788605 -13.619600
								CHANNELS 3 Xrotation Yrotation Zrotation
								End Site
								{
									OFFSET 0.000000 0.000000 0.000000
								}
							}
						}
					}
					JOINT LeftShoulder
					{
						OFFSET 2.196100 4.412489 0.087492
						CHANNELS 3 Xrotation Yrotation Zrotation
						JOINT LeftShoulder_split
						{
							OFFSET 2.196100 4.412489 0.087492
							CHANNELS 3 Xrotation Yrotation Zrotation
							JOINT LeftArm
							{
								OFFSET 8.771219 -2.981674 -0.026999
								CHANNELS 3 Xrotation Yrotation Zrotation
								JOINT LeftForeArm
								{
									OFFSET 8.512804 0.000000 -0.000000
									CHANNELS 3 Xrotation Yrotation Zrotation
									JOINT LeftHand
									{
										OFFSET 18.484802 0.000000 -0.000000
										CHANNELS 3 Xrotation Yrotation Zrotation
										JOINT LeftHandThumb1
										{
											OFFSET 2.499420 -1.158070 2.653252
											CHANNELS 3 Xrotation Yrotation Zrotation
											JOINT LeftHandThumb2
											{
												OFFSET 2.370079 -1.368366 1.368366
												CHANNELS 3 Xrotation Yrotation Zrotation
												JOINT LeftHandThumb3
												{
													OFFSET 2.676727 -1.545410 1.545409
													CHANNELS 3 Xrotation Yrotation Zrotation
													JOINT LeftHandThumb4
													{
														OFFSET 1.692226 -0.977005 0.977007
														CHANNELS 3 Xrotation Yrotation Zrotation
														End Site
														{
															OFFSET 0.000000 0.000000 0.000000
														}
													}
												}
											}
										}
										JOINT LeftHandIndex1
										{
											OFFSET 7.924831 -0.457527 2.345128
											CHANNELS 3 Xrotation Yrotation Zrotation
											JOINT LeftHandIndex2
											{
												OFFSET 3.643303 0.000000 0.000000
												CHANNELS 3 Xrotation Yrotation Zrotation
												JOINT LeftHandIndex3
												{
													OFFSET 3.810799 0.000000 0.000000
													CHANNELS 3 Xrotation Yrotation Zrotation
													JOINT LeftHandIndex4
													{
														OFFSET 2.403702 0.000000 0.000000
														CHANNELS 3 Xrotation Yrotation Zrotation
														End Site
														{
															OFFSET 0.000000 0.000000 0.000000
														}
													}
												}
											}
										}
										JOINT LeftHandMiddle1
										{
											OFFSET 8.563995 0.000000 -0.000000
											CHANNELS 3 Xrotation Yrotation Zrotation
											JOINT LeftHandMiddle2
											{
												OFFSET 3.861618 0.000000 0.000000
												CHANNELS 3 Xrotation Yrotation Zrotation
												JOINT LeftHandMiddle3
												{
													OFFSET 3.701603 0.000000 0.000000
													CHANNELS 3 Xrotation Yrotation Zrotation
													JOINT LeftHandMiddle4
													{
														OFFSET 2.322544 0.000000 0.000000
														CHANNELS 3 Xrotation Yrotation Zrotation
														End Site
														{
															OFFSET 0.000000 0.000000 0.000000
														}
													}
												}
											}
										}
										JOINT LeftHandRing1
										{
											OFFSET 8.426460 -0.424637 -3.286992
											CHANNELS 3 Xrotation Yrotation Zrotation
											JOINT LeftHandRing2
											{
												OFFSET 3.126408 0.000000 0.000000
												CHANNELS 3 Xrotation Yrotation Zrotation
												JOINT LeftHandRing3
												{
													OFFSET 3.085026 0.000000 0.000000
													CHANNELS 3 Xrotation Yrotation Zrotation
													JOINT LeftHandRing4
													{
														OFFSET 1.644005 0.000000 0.000000
														CHANNELS 3 Xrotation Yrotation Zrotation
														End Site
														{
															OFFSET 0.000000 0.000000 0.000000
														}
													}
												}
											}
										}
									}
								}
							}
						}
					}
					JOINT RightShoulder
					{
						OFFSET -2.196100 4.412496 0.070690
						CHANNELS 3 Xrotation Yrotation Zrotation
						JOINT RightShoulder_split
						{
							OFFSET -2.196100 4.412496 0.070690
							CHANNELS 3 Xrotation Yrotation Zrotation
							JOINT RightArm
							{
								OFFSET -8.771282 -2.981682 -0.094208
								CHANNELS 3 Xrotation Yrotation Zrotation
								JOINT RightForeArm
								{
									OFFSET -8.494598 0.000000 0.000000
									CHANNELS 3 Xrotation Yrotation Zrotation
									JOINT RightHand
									{
										OFFSET -18.483803 0.000000 0.000001
										CHANNELS 3 Xrotation Yrotation Zrotation
										JOINT RightHandThumb1
										{
											OFFSET -2.527351 -1.008072 2.575253
											CHANNELS 3 Xrotation Yrotation Zrotation
											JOINT RightHandThumb2
											{
												OFFSET -2.321518 -1.340328 1.340329
												CHANNELS 3 Xrotation Yrotation Zrotation
												JOINT RightHandThumb3
												{
													OFFSET -2.657753 -1.534454 1.534455
													CHANNELS 3 Xrotation Yrotation Zrotation
													JOINT RightHandThumb4
													{
														OFFSET -1.807510 -1.043568 1.043567
														CHANNELS 3 Xrotation Yrotation Zrotation
														End Site
														{
															OFFSET 0.000000 0.000000 0.000000
														}
													}
												}
											}
										}
										JOINT RightHandIndex1
										{
											OFFSET -8.811420 0.015533 2.887987
											CHANNELS 3 Xrotation Yrotation Zrotation
											JOINT RightHandIndex2
											{
												OFFSET -3.537502 0.000000 0.000000
												CHANNELS 3 Xrotation Yrotation Zrotation
												JOINT RightHandIndex3
												{
													OFFSET -3.356201 0.000000 0.000000
													CHANNELS 3 Xrotation Yrotation Zrotation
													JOINT RightHandIndex4
													{
														OFFSET -1.933098 0.000000 0.000000
														CHANNELS 3 Xrotation Yrotation Zrotation
														End Site
														{
															OFFSET 0.000000 0.000000 0.000000
														}
													}
												}
											}
										}
										JOINT RightHandMiddle1
										{
											OFFSET -8.178135 0.000000 0.000000
											CHANNELS 3 Xrotation Yrotation Zrotation
											JOINT RightHandMiddle2
											{
												OFFSET -3.901302 0.000000 0.000000
												CHANNELS 3 Xrotation Yrotation Zrotation
												JOINT RightHandMiddle3
												{
													OFFSET -3.909599 0.000000 0.000000
													CHANNELS 3 Xrotation Yrotation Zrotation
													JOINT RightHandMiddle4
													{
														OFFSET -2.376003 0.000000 0.000000
														CHANNELS 3 Xrotation Yrotation Zrotation
														End Site
														{
															OFFSET 0.000000 0.000000 0.000000
														}
													}
												}
											}
										}
										JOINT RightHandRing1
										{
											OFFSET -7.559013 0.014137 -2.865403
											CHANNELS 3 Xrotation Yrotation Zrotation
											JOINT RightHandRing2
											{
												OFFSET -3.449306 0.000000 0.000000
												CHANNELS 3 Xrotation Yrotation Zrotation
												JOINT RightHandRing3
												{
													OFFSET -3.362106 0.000000 0.000000
													CHANNELS 3 Xrotation Yrotation Zrotation
													JOINT RightHandRing4
													{
														OFFSET -2.076401 0.000000 0.000000
														CHANNELS 3 Xrotation Yrotation Zrotation
														End Site
														{
															OFFSET 0.000000 0.000000 0.000000
														}
													}
												}
											}
										}
									}
								}
							}
						}
					}
				}
			}
		}
	}
	JOINT LeftUpLeg
	{
		OFFSET 10.205400 -3.823500 0.155100
		CHANNELS 3 Xrotation Yrotation Zrotation
		JOINT LeftLeg
		{
			OFFSET 0.708757 -12.982077 0.567790
			CHANNELS 3 Xrotation Yrotation Zrotation
			JOINT LeftFoot
			{
				OFFSET -0.708756 -10.717838 -2.184338
				CHANNELS 3 Xrotation Yrotation Zrotation
				JOINT LeftToeBase
				{
					OFFSET 0.108149 -7.191104 7.560241
					CHANNELS 3 Xrotation Yrotation Zrotation
					JOINT LeftToe_End
					{
						OFFSET 0.070230 0.081724 4.490308
						CHANNELS 3 Xrotation Yrotation Zrotation
						End Site
						{
							OFFSET 0.000000 0.000000 0.000000
						}
					}
				}
			}
		}
	}
	JOINT RightUpLeg
	{
		OFFSET -10.205400 -3.823500 0.005500
		CHANNELS 3 Xrotation Yrotation Zrotation
		JOINT RightLeg
		{
			OFFSET -0.708756 -12.982134 0.610632
			CHANNELS 3 Xrotation Yrotation Zrotation
			JOINT RightFoot
			{
				OFFSET 0.708754 -10.717769 -1.945823
				CHANNELS 3 Xrotation Yrotation Zrotation
				JOINT RightToeBase
				{
					OFFSET -0.108140 -7.191069 7.372968
					CHANNELS 3 Xrotation Yrotation Zrotation
					JOINT RightToe_End
					{
						OFFSET -0.070227 0.081735 4.479403
						CHANNELS 3 Xrotation Yrotation Zrotation
						End Site
						{
							OFFSET 0.000000 0.000000 0.000000
						}
					}
				}
			}
		}
	}
}
MOTION
Frames: 4
Frame Time: 0.016667
-1.072565 5.697857 10.185024 -86.981667 -3.400827 1.892781 0.155125 1.854259 -4.326373 -2.894324 0.722157 -0.032030 0.000000 0.000000 0.000000 -2.892148 0.750137 -0.008815 4.260100 0.456928 0.133952 4.823575 3.550530 10.429255 -0.000000 -0.000000 0.000001 1.575195 -15.462648 -0.386120 0.000000 0.000000 0.000000 21.370846 -1.052523 -73.139141 -0.000009 -137.558453 0.000003 -17.216062 17.260918 -40.864895 -7.747777 -16.408836 12.046761 7.558155 31.509544 -3.040775 -10.327324 16.515327 14.878092 -0.000001 -0.000000 -0.000004 0.259308 3.223714 10.217942 0.789875 2.939706 -30.073692 0.009381 -0.331722 3.238827 0.000000 0.000000 0.000000 -0.267159 2.447519 18.123133 0.825485 3.000284 -30.761068 0.002431 -0.168726 1.646712 0.000000 -0.000000 -0.000000 -0.192999 1.876656 21.842778 0.923697 3.159202 -32.588718 0.021146 -0.497951 4.865113 0.000000 -0.000000 0.000001 0.537282 6.692239 0.071566 0.000000 0.000000 0.000000 17.297883 6.543554 66.743700 -0.000002 132.968046 0.000009 -16.839251 -11.628807 48.900705 -19.372348 9.812739 -17.628141 16.805773 -33.149121 6.482063 3.930035 -4.675001 -18.270495 -0.000000 -0.000003 -0.000000 -0.578711 -1.290232 19.415301 -0.000004 -0.000002 0.000008 0.000368 -0.059109 0.725563 0.000001 -0.000000 0.000001 0.900192 -7.884218 9.062703 0.294485 -1.631383 20.463684 0.051645 -0.692352 8.531054 -0.000001 -0.000000 0.000003 0.740065 -10.091155 4.911411 1.354389 -3.285245 44.799976 0.134873 1.113833 -13.807952 -0.000001 -0.000002 0.000001 -27.036640 18.618592 -14.123238 30.706628 -4.298572 -10.068703 -2.203067 7.715543 14.753630 -0.274306 0.000001 -0.000003 0.000000 -0.000001 0.000000 -1.748740 -10.113820 4.090372 -4.694911 -11.529942 4.012559 16.439856 -3.609409 21.240276 -2.161730 0.000010 0.000007 -0.000000 -0.000003 0.000002 
-1.072505 5.697912 10.188835 -86.987664 -3.402030 1.892696 0.159193 1.844463 -4.319289 -2.899770 0.719092 -0.031225 0.000000 0.000000 0.000000 -2.897584 0.747077 -0.008095 4.272389 0.440566 0.143374 4.853045 3.381549 10.433354 0.000000 -0.000000 -0.000001 1.572092 -15.451428 -0.406927 0.000000 0.000000 0.000000 21.322421 -0.990302 -73.108405 -0.000005 -137.648898 -0.000009 -16.964899 17.158769 -40.725034 -7.677293 -16.481622 12.448402 7.558154 31.509541 -3.040775 -10.327326 16.515329 14.878088 -0.000001 0.000002 -0.000004 0.216536 3.322628 9.268484 0.755079 2.878856 -29.388207 0.020824 -0.494045 4.826917 0.000001 0.000000 -0.000001 -0.267954 2.540370 17.341936 0.825489 3.000283 -30.761079 0.009837 -0.339735 3.317176 0.000000 -0.000000 0.000000 -0.202642 1.974551 21.008600 0.883417 3.095387 -31.850501 0.034686 -0.637372 6.232210 -0.000000 -0.000000 -0.000003 0.542307 6.731894 0.071276 0.000000 0.000000 0.000000 17.280957 6.510342 66.772810 -0.000046 132.980327 0.000025 -16.827499 -11.646454 48.902983 -19.372348 9.812736 -17.628141 16.805771 -33.149131 6.482058 3.930037 -4.675005 -18.270495 -0.000000 -0.000000 0.000001 -0.578711 -1.290233 19.415301 -0.000003 -0.000002 0.000008 0.000368 -0.059110 0.725562 0.000002 -0.000000 0.000000 0.900191 -7.884217 9.062701 0.294483 -1.631385 20.463684 0.051647 -0.692353 8.531053 -0.000000 0.000001 0.000000 0.740066 -10.091155 4.911411 1.354391 -3.285244 44.799972 0.134873 1.113834 -13.807953 0.000000 -0.000002 0.000001 -27.049706 18.623312 -14.117195 30.749126 -4.297823 -10.072938 -2.222680 7.691733 14.759291 -0.272498 -0.000000 0.000005 0.000000 -0.000000 0.000000 -1.735479 -10.112788 4.089438 -4.681173 -11.544872 4.010790 16.391400 -3.604845 21.259138 -2.138392 0.000025 -0.000021 0.000002 0.000003 -0.000002 
-1.072254 5.697948 10.192795 -86.993674 -3.401767 1.892396 0.165806 1.834839 -4.310876 -2.905655 0.716117 -0.029207 0.000000 0.000000 0.000000 -2.903438 0.744093 -0.006157 4.284318 0.424950 0.153657 4.886330 3.221610 10.436329 -0.000000 0.000000 0.000000 1.568752 -15.437780 -0.427658 0.000000 0.000000 0.000000 21.271656 -0.938632 -73.079992 -0.000003 -137.717719 0.000005 -16.836744 17.157155 -40.835696 -7.606080 -16.554695 12.852107 7.558156 31.509544 -3.040777 -10.327323 16.515326 14.878090 -0.000000 -0.000001 -0.000001 0.175410 3.423360 8.317325 0.720854 2.817307 -28.699465 0.036855 -0.656785 6.422819 0.000000 0.000000 -0.000000 -0.267367 2.633413 16.559252 0.825489 3.000287 -30.761079 0.022316 -0.511293 4.995829 0.000000 0.000000 0.000001 -0.210767 2.072764 20.172854 0.843794 3.030762 -31.108780 0.051646 -0.777109 7.606057 -0.000000 0.000000 -0.000001 0.546414 6.771669 0.070974 0.000000 0.000000 0.000000 17.268883 6.484048 66.804250 0.000005 132.996023 0.000013 -16.820413 -11.675037 48.886065 -19.372343 9.812738 -17.628141 16.805769 -33.149124 6.482059 3.930037 -4.675002 -18.270496 -0.000002 0.000003 -0.000002 -0.578707 -1.290232 19.415298 -0.000003 -0.000002 0.000007 0.000368 -0.059110 0.725562 0.000002 -0.000000 -0.000000 0.900196 -7.884217 9.062701 0.294485 -1.631384 20.463682 0.051648 -0.692355 8.531052 -0.000001 -0.000001 0.000001 0.740069 -10.091154 4.911410 1.354390 -3.285245 44.799972 0.134872 1.113831 -13.807951 -0.000000 0.000001 0.000001 -27.062688 18.628289 -14.111743 30.791835 -4.296596 -10.077351 -2.242087 7.666771 14.765739 -0.270425 -0.000003 -0.000002 -0.000000 -0.000001 -0.000000 -1.721029 -10.112043 4.088243 -4.668057 -11.561317 4.009206 16.342049 -3.600252 21.279072 -2.113900 0.000013 -0.000011 -0.000001 0.000001 -0.000001 
-1.071837 5.697950 10.196815 -86.999439 -3.399949 1.891996 0.174012 1.826393 -4.302839 -2.910624 0.713544 -0.026432 0.000000 0.000000 0.000000 -2.908349 0.741506 -0.003457 4.294638 0.409459 0.165082 4.917913 3.065239 10.438751 -0.000000 -0.000000 -0.000001 1.565673 -15.422393 -0.445045 0.000000 0.000000 0.000000 21.221010 -0.901429 -73.058285 -0.000022 -137.753605 -0.000008 -16.852075 17.263884 -41.211347 -7.535818 -16.626303 13.248351 7.558154 31.509541 -3.040775 -10.327324 16.515326 14.878087 -0.000000 0.000001 -0.000002 0.136836 3.523654 7.385389 0.688008 2.756519 -28.023750 0.056972 -0.815964 7.988787 -0.000000 0.000000 -0.000000 -0.265445 2.724604 15.792270 0.825496 3.000293 -30.761079 0.039422 -0.679199 6.642977 0.000000 0.000000 -0.000001 -0.217205 2.169163 19.353910 0.805715 2.966849 -30.381115 0.071555 -0.913772 8.954122 -0.000001 -0.000000 -0.000002 0.549128 6.804094 0.070717 0.000000 0.000000 0.000000 17.259745 6.469281 66.833101 -0.000036 133.013221 0.000004 -16.816569 -11.710419 48.858850 -19.372344 9.812736 -17.628143 16.805774 -33.149124 6.482059 3.930032 -4.674999 -18.270491 -0.000000 -0.000000 0.000001 -0.578709 -1.290233 19.415298 -0.000002 -0.000002 0.000009 0.000367 -0.059110 0.725562 0.000001 -0.000000 0.000000 0.900192 -7.884219 9.062701 0.294488 -1.631385 20.463680 0.051649 -0.692354 8.531051 0.000001 0.000001 0.000002 0.740068 -10.091155 4.911409 1.354389 -3.285244 44.799969 0.134874 1.113832 -13.807953 0.000000 0.000000 0.000001 -27.075766 18.633436 -14.106957 30.833748 -4.294837 -10.081945 -2.260105 7.640837 14.773096 -0.268064 0.000006 -0.000007 -0.000000 -0.000002 0.000001 -1.707648 -10.111680 4.086317 -4.651936 -11.577981 4.008037 16.290047 -3.596776 21.300660 -2.088354 0.000020 -0.000010 0.000003 0.000003 -0.000002 
